<mxfile host="65bd71144e">
    <diagram id="PkJPyJVpOMJ8neYSjtZZ" name="Page-1">
        <mxGraphModel dx="384" dy="377" grid="1" gridSize="10" guides="1" tooltips="1" connect="1" arrows="1" fold="1" page="1" pageScale="1" pageWidth="827" pageHeight="1169" math="0" shadow="0">
            <root>
                <mxCell id="0"/>
                <mxCell id="1" parent="0"/>
                <mxCell id="2" value="" style="shape=parallelogram;perimeter=parallelogramPerimeter;whiteSpace=wrap;html=1;fixedSize=1;" parent="1" vertex="1">
                    <mxGeometry x="490" y="1310" width="230" height="180" as="geometry"/>
                </mxCell>
                <mxCell id="3" style="edgeStyle=orthogonalEdgeStyle;rounded=0;orthogonalLoop=1;jettySize=auto;html=1;entryX=0.688;entryY=1.045;entryDx=0;entryDy=0;entryPerimeter=0;" parent="1" source="6" target="7" edge="1">
                    <mxGeometry relative="1" as="geometry"/>
                </mxCell>
                <mxCell id="4" style="edgeStyle=orthogonalEdgeStyle;rounded=0;orthogonalLoop=1;jettySize=auto;html=1;entryX=-0.027;entryY=0.527;entryDx=0;entryDy=0;entryPerimeter=0;" parent="1" source="6" target="9" edge="1">
                    <mxGeometry relative="1" as="geometry">
                        <mxPoint x="565" y="1840" as="targetPoint"/>
                    </mxGeometry>
                </mxCell>
                <mxCell id="43" style="edgeStyle=none;html=1;" parent="1" source="6" target="42" edge="1">
                    <mxGeometry relative="1" as="geometry"/>
                </mxCell>
                <mxCell id="6" value="Connector 1.py - [&lt;b&gt;FUN APP]&lt;/b&gt;" style="shape=card;whiteSpace=wrap;html=1;" parent="1" vertex="1">
                    <mxGeometry x="345" y="1790" width="80" height="100" as="geometry"/>
                </mxCell>
                <mxCell id="7" value="SRC 1" style="whiteSpace=wrap;html=1;aspect=fixed;" parent="1" vertex="1">
                    <mxGeometry x="145" y="1690" width="80" height="80" as="geometry"/>
                </mxCell>
                <mxCell id="8" style="edgeStyle=orthogonalEdgeStyle;rounded=0;orthogonalLoop=1;jettySize=auto;html=1;entryX=0.5;entryY=0;entryDx=0;entryDy=0;entryPerimeter=0;" parent="1" source="9" target="18" edge="1">
                    <mxGeometry relative="1" as="geometry"/>
                </mxCell>
                <mxCell id="9" value="DATA" style="shape=cube;whiteSpace=wrap;html=1;boundedLbl=1;backgroundOutline=1;darkOpacity=0.05;darkOpacity2=0.1;" parent="1" vertex="1">
                    <mxGeometry x="575" y="1800" width="120" height="80" as="geometry"/>
                </mxCell>
                <mxCell id="10" value="WHERE WILL YOU SAVE THIS?" style="shape=callout;whiteSpace=wrap;html=1;perimeter=calloutPerimeter;" parent="1" vertex="1">
                    <mxGeometry x="595" y="1730" width="120" height="80" as="geometry"/>
                </mxCell>
                <mxCell id="11" value="SRC 2" style="whiteSpace=wrap;html=1;aspect=fixed;" parent="1" vertex="1">
                    <mxGeometry x="1390" y="1310" width="80" height="80" as="geometry"/>
                </mxCell>
                <mxCell id="12" style="edgeStyle=orthogonalEdgeStyle;rounded=0;orthogonalLoop=1;jettySize=auto;html=1;" parent="1" source="15" edge="1">
                    <mxGeometry relative="1" as="geometry">
                        <mxPoint x="1390" y="1360" as="targetPoint"/>
                    </mxGeometry>
                </mxCell>
                <mxCell id="13" style="edgeStyle=orthogonalEdgeStyle;rounded=0;orthogonalLoop=1;jettySize=auto;html=1;entryX=0.855;entryY=0;entryDx=0;entryDy=4.35;entryPerimeter=0;" parent="1" source="15" target="18" edge="1">
                    <mxGeometry relative="1" as="geometry">
                        <Array as="points">
                            <mxPoint x="1280" y="1750"/>
                            <mxPoint x="911" y="1750"/>
                        </Array>
                    </mxGeometry>
                </mxCell>
                <mxCell id="14" value="Reads data from the storage&lt;br&gt;&amp;nbsp;that needs to be pushed to SRC2" style="edgeLabel;html=1;align=center;verticalAlign=middle;resizable=0;points=[];" parent="13" connectable="0" vertex="1">
                    <mxGeometry x="-0.477" y="2" relative="1" as="geometry">
                        <mxPoint as="offset"/>
                    </mxGeometry>
                </mxCell>
                <mxCell id="15" value="INTEGRATOR.py" style="shape=card;whiteSpace=wrap;html=1;" parent="1" vertex="1">
                    <mxGeometry x="1230" y="1360" width="100" height="110" as="geometry"/>
                </mxCell>
                <mxCell id="16" style="edgeStyle=orthogonalEdgeStyle;rounded=0;orthogonalLoop=1;jettySize=auto;html=1;entryX=0.5;entryY=0;entryDx=0;entryDy=0;" parent="1" source="18" target="21" edge="1">
                    <mxGeometry relative="1" as="geometry"/>
                </mxCell>
                <mxCell id="17" value="Triggers EH1, &lt;br&gt;WHEN DATA LANDS &lt;br&gt;IN THE &lt;br&gt;STORAGE" style="edgeLabel;html=1;align=center;verticalAlign=middle;resizable=0;points=[];" parent="16" connectable="0" vertex="1">
                    <mxGeometry x="0.0105" y="1" relative="1" as="geometry">
                        <mxPoint as="offset"/>
                    </mxGeometry>
                </mxCell>
                <mxCell id="18" value="Storage&lt;br&gt;(S3/BLOB)" style="shape=cylinder3;whiteSpace=wrap;html=1;boundedLbl=1;backgroundOutline=1;size=15;" parent="1" vertex="1">
                    <mxGeometry x="860" y="1860" width="60" height="80" as="geometry"/>
                </mxCell>
                <mxCell id="19" style="edgeStyle=orthogonalEdgeStyle;rounded=0;orthogonalLoop=1;jettySize=auto;html=1;entryX=0.45;entryY=1.026;entryDx=0;entryDy=0;entryPerimeter=0;" parent="1" source="21" target="22" edge="1">
                    <mxGeometry relative="1" as="geometry">
                        <Array as="points">
                            <mxPoint x="980" y="1650"/>
                            <mxPoint x="610" y="1650"/>
                        </Array>
                    </mxGeometry>
                </mxCell>
                <mxCell id="20" value="When data is pushed into storage,&amp;nbsp;&lt;br&gt;EH looks into LOGs to identify which connector is triggered&lt;br&gt;and sends the storage details back to controller" style="edgeLabel;html=1;align=center;verticalAlign=middle;resizable=0;points=[];" parent="19" connectable="0" vertex="1">
                    <mxGeometry x="0.0308" relative="1" as="geometry">
                        <mxPoint as="offset"/>
                    </mxGeometry>
                </mxCell>
                <mxCell id="21" value="EH1" style="shape=document;whiteSpace=wrap;html=1;boundedLbl=1;" parent="1" vertex="1">
                    <mxGeometry x="1210" y="1960" width="120" height="80" as="geometry"/>
                </mxCell>
                <mxCell id="22" value="CONTROLLER.PY" style="shape=card;whiteSpace=wrap;html=1;" parent="1" vertex="1">
                    <mxGeometry x="565" y="1360" width="100" height="100" as="geometry"/>
                </mxCell>
                <mxCell id="23" style="edgeStyle=orthogonalEdgeStyle;rounded=0;orthogonalLoop=1;jettySize=auto;html=1;entryX=0;entryY=0;entryDx=65;entryDy=0;entryPerimeter=0;" parent="1" source="24" target="22" edge="1">
                    <mxGeometry relative="1" as="geometry"/>
                </mxCell>
                <mxCell id="24" value="src1- config, Trigger time" style="shape=cylinder3;whiteSpace=wrap;html=1;boundedLbl=1;backgroundOutline=1;size=15;" parent="1" vertex="1">
                    <mxGeometry x="785" y="1160" width="175" height="90" as="geometry"/>
                </mxCell>
                <mxCell id="25" value="SCHEDULER - AIRFLOW" style="whiteSpace=wrap;html=1;" parent="1" vertex="1">
                    <mxGeometry x="520" y="1320" width="100" height="30" as="geometry"/>
                </mxCell>
                <mxCell id="26" value="" style="endArrow=classic;html=1;rounded=0;exitX=0;exitY=0;exitDx=0;exitDy=65;exitPerimeter=0;entryX=0;entryY=0;entryDx=55;entryDy=0;entryPerimeter=0;" parent="1" source="22" target="6" edge="1">
                    <mxGeometry width="50" height="50" relative="1" as="geometry">
                        <mxPoint x="1040" y="1690" as="sourcePoint"/>
                        <mxPoint x="1090" y="1640" as="targetPoint"/>
                        <Array as="points">
                            <mxPoint x="400" y="1425"/>
                        </Array>
                    </mxGeometry>
                </mxCell>
                <mxCell id="27" value="SRC1, &lt;br&gt;at Schedule time, &lt;br&gt;sends trigger&amp;nbsp;" style="edgeLabel;html=1;align=center;verticalAlign=middle;resizable=0;points=[];" parent="26" connectable="0" vertex="1">
                    <mxGeometry x="-0.1508" y="-3" relative="1" as="geometry">
                        <mxPoint x="-1" y="-58" as="offset"/>
                    </mxGeometry>
                </mxCell>
                <mxCell id="28" style="edgeStyle=orthogonalEdgeStyle;rounded=0;orthogonalLoop=1;jettySize=auto;html=1;exitX=1;exitY=0.5;exitDx=0;exitDy=0;exitPerimeter=0;" parent="1" source="42" target="21" edge="1">
                    <mxGeometry relative="1" as="geometry">
                        <mxPoint x="600" y="2090.1111111111104" as="sourcePoint"/>
                    </mxGeometry>
                </mxCell>
                <mxCell id="29" value="New entry is made into DB" style="edgeLabel;html=1;align=center;verticalAlign=middle;resizable=0;points=[];" parent="28" connectable="0" vertex="1">
                    <mxGeometry x="-0.1738" relative="1" as="geometry">
                        <mxPoint as="offset"/>
                    </mxGeometry>
                </mxCell>
                <mxCell id="30" value="" style="endArrow=classic;html=1;rounded=0;exitX=1;exitY=0.5;exitDx=0;exitDy=0;exitPerimeter=0;entryX=-0.043;entryY=0.522;entryDx=0;entryDy=0;entryPerimeter=0;" parent="1" source="22" target="15" edge="1">
                    <mxGeometry width="50" height="50" relative="1" as="geometry">
                        <mxPoint x="910" y="1660" as="sourcePoint"/>
                        <mxPoint x="960" y="1610" as="targetPoint"/>
                    </mxGeometry>
                </mxCell>
                <mxCell id="31" value="Calls Integrator to push data to the mentioned src" style="edgeLabel;html=1;align=center;verticalAlign=middle;resizable=0;points=[];" parent="30" connectable="0" vertex="1">
                    <mxGeometry x="0.0044" y="-1" relative="1" as="geometry">
                        <mxPoint as="offset"/>
                    </mxGeometry>
                </mxCell>
                <mxCell id="32" style="edgeStyle=orthogonalEdgeStyle;rounded=0;orthogonalLoop=1;jettySize=auto;html=1;entryX=1;entryY=0.5;entryDx=0;entryDy=0;entryPerimeter=0;" parent="1" source="34" target="24" edge="1">
                    <mxGeometry relative="1" as="geometry"/>
                </mxCell>
                <mxCell id="33" style="edgeStyle=orthogonalEdgeStyle;rounded=0;orthogonalLoop=1;jettySize=auto;html=1;" parent="1" source="34" edge="1">
                    <mxGeometry relative="1" as="geometry">
                        <mxPoint x="1550" y="1090" as="targetPoint"/>
                    </mxGeometry>
                </mxCell>
                <mxCell id="34" value="TODO: HOW WILL DATA GET INTO CONFIG DATABACK" style="shape=hexagon;perimeter=hexagonPerimeter2;whiteSpace=wrap;html=1;fixedSize=1;" parent="1" vertex="1">
                    <mxGeometry x="1210" y="1050" width="120" height="80" as="geometry"/>
                </mxCell>
                <mxCell id="35" value="MAIN WEB APP" style="swimlane;whiteSpace=wrap;html=1;" parent="1" vertex="1">
                    <mxGeometry x="2160" y="690" width="200" height="200" as="geometry"/>
                </mxCell>
                <mxCell id="36" value="INFO OF STORED CONNECTORS" style="whiteSpace=wrap;html=1;aspect=fixed;" parent="35" vertex="1">
                    <mxGeometry x="20" y="50" width="100" height="100" as="geometry"/>
                </mxCell>
                <mxCell id="37" style="edgeStyle=orthogonalEdgeStyle;rounded=0;orthogonalLoop=1;jettySize=auto;html=1;entryX=0.5;entryY=0;entryDx=0;entryDy=0;entryPerimeter=0;strokeColor=default;" parent="1" source="39" target="24" edge="1">
                    <mxGeometry relative="1" as="geometry"/>
                </mxCell>
                <mxCell id="38" value="NEEDS REFINEMENT" style="edgeLabel;html=1;align=center;verticalAlign=middle;resizable=0;points=[];" parent="37" connectable="0" vertex="1">
                    <mxGeometry x="-0.2214" y="5" relative="1" as="geometry">
                        <mxPoint x="-1" y="-1" as="offset"/>
                    </mxGeometry>
                </mxCell>
                <mxCell id="39" value="CRUD.py" style="shape=card;whiteSpace=wrap;html=1;" parent="1" vertex="1">
                    <mxGeometry x="1790" y="880" width="80" height="100" as="geometry"/>
                </mxCell>
                <mxCell id="40" value="" style="endArrow=classic;startArrow=classic;html=1;rounded=0;exitX=1;exitY=0.5;exitDx=0;exitDy=0;exitPerimeter=0;entryX=0;entryY=0.5;entryDx=0;entryDy=0;" parent="1" source="39" target="35" edge="1">
                    <mxGeometry width="50" height="50" relative="1" as="geometry">
                        <mxPoint x="1490" y="1220" as="sourcePoint"/>
                        <mxPoint x="2150" y="820" as="targetPoint"/>
                    </mxGeometry>
                </mxCell>
                <mxCell id="41" value="A2B Architecture - cloud -staus" style="rounded=1;whiteSpace=wrap;html=1;" parent="1" vertex="1">
                    <mxGeometry x="160" y="390" width="2340" height="60" as="geometry"/>
                </mxCell>
                <mxCell id="42" value="LOGS" style="shape=cylinder3;whiteSpace=wrap;html=1;boundedLbl=1;backgroundOutline=1;size=15;" parent="1" vertex="1">
                    <mxGeometry x="565" y="2100" width="60" height="80" as="geometry"/>
                </mxCell>
            </root>
        </mxGraphModel>
    </diagram>
</mxfile>